<svg xmlns="http://www.w3.org/2000/svg" viewBox="0 0 128 128" role="img" aria-label="Hannah Vanessa favicon">
  <rect width="128" height="128" rx="24" fill="#f8f8f6" />

  <g fill="none" stroke="#262626" stroke-linecap="round" stroke-linejoin="round">
    <path stroke-width="3.6" d="M64 13c5 0 9 2 9 6 0 6-6 10-6 15 0 3 2 5 5 7" />
    <path stroke-width="3.4" d="M30 34 64 28l34 6" />
    <path stroke-width="3.4" d="M38 35c-7 16-10 32-10 49 0 17 3 30 8 40 6 12 16 20 28 23 12-3 22-11 28-23 5-10 8-23 8-40 0-17-3-33-10-49" />
    <path stroke-width="4" d="M64 29 57 111" />
    <path stroke-width="3.4" d="M56 111c3 4 6 6 8 6s5-2 8-6" />
  </g>

  <g fill="none" stroke="#8f8f8f" stroke-linecap="round" stroke-linejoin="round">
    <path stroke-width="2.6" d="M41 40c8-2 14-1 20 6" />
    <path stroke-width="2.6" d="M87 40c-8-2-14-1-20 6" />
    <path stroke-width="2.8" d="M47 67c12-3 22-3 32 0" />
    <path stroke-width="2.1" d="M36 46c-2 13-2 27 0 42" />
    <path stroke-width="2.1" d="M92 46c2 13 2 27 0 42" />
    <path stroke-width="2.1" d="M49 80 42 97" />
    <path stroke-width="2.1" d="M79 80 86 97" />
    <path stroke-width="2.2" d="M18 56h4" />
    <path stroke-width="2.2" d="M20 54v4" />
    <path stroke-width="2.2" d="M105 56h4" />
    <path stroke-width="2.2" d="M107 54v4" />
    <path stroke-width="2.2" d="M23 86h4" />
    <path stroke-width="2.2" d="M25 84v4" />
    <path stroke-width="2.2" d="M100 86h4" />
    <path stroke-width="2.2" d="M102 84v4" />
  </g>

  <g fill="#767676">
    <circle cx="62.5" cy="50.5" r="3" />
    <circle cx="62.5" cy="58.5" r="3" />
    <circle cx="62.5" cy="76" r="3" />
  </g>
</svg>